<?xml version="1.0" encoding="UTF-8"?>
<svg width="120px" height="105px" version="1.1" xmlns="http://www.w3.org/2000/svg" xmlns:xlink="http://www.w3.org/1999/xlink">
    <title>Group</title>
    <desc>Created with Sketch.</desc>
    <g id="Deeplink" stroke="none" stroke-width="1" fill="none" fill-rule="evenodd">
        <g id="Desktop-HD" transform="translate(-660.000000, -312.000000)">
            <g id="Group" transform="translate(640.000000, 312.000000)">
                <path d="M132.60274,52.0543782 C132.60274,23.304948 121.972352,0 79.4516376,0 C36.9325917,0 26.3013699,23.304948 26.3013699,52.0543782 C26.3013699,80.804641 36.9325917,104.109589 79.4516376,104.109589 C121.972352,104.109589 132.60274,80.804641 132.60274,52.0543782 L132.60274,52.0543782 Z M74.1168337,83.2666893 L74.1168337,78.0611682 C74.1168337,75.1861419 76.4950898,72.8556471 79.4307757,72.8556471 C82.3664616,72.8556471 84.7455521,75.1861419 84.7455521,78.0611682 L84.7455521,83.2666893 C84.7455521,86.1417156 82.3664616,88.4722104 79.4307757,88.4722104 C76.4950898,88.4722104 74.1168337,86.1417156 74.1168337,83.2666893 Z M111.321103,54.6371559 C111.321103,69.1888021 101.158022,81.4074557 87.405861,84.8778031 C87.3224134,84.8703095 87.2548208,84.8045328 87.2548208,84.7204385 L87.2531519,84.7187732 C87.3457787,84.2466794 87.4033575,83.7637616 87.4033575,83.2666893 L87.4033575,78.0611682 C87.4033575,76.7764403 87.0812499,75.5666479 86.5204821,74.4984003 L86.5271579,74.4967351 L86.4887721,74.392658 L86.5930815,74.2427869 L86.593916,74.2377912 C94.8093303,71.3577693 100.690716,63.6743802 100.690716,54.6371559 C100.690716,43.1370508 91.1726848,33.8150716 79.4307757,33.8150716 C67.689701,33.8150716 58.1708355,43.1370508 58.1708355,54.6354907 L58.1708355,54.6371559 C58.1708355,63.6752128 64.0555589,71.362765 72.2751456,74.2411217 L72.279318,74.2511131 L72.3644345,74.392658 L72.3444071,74.4717566 L72.3519174,74.4767523 C71.7836393,75.5516608 71.4590283,76.7681141 71.4590283,78.0611682 L71.4590283,83.2666893 C71.4590283,83.7654268 71.5166071,84.2483447 71.6083994,84.7204385 L71.5992202,84.7204385 C71.5992202,84.8028675 71.5324621,84.866979 71.4506835,84.8761378 C57.7010256,81.4057904 47.5404482,69.1871369 47.5404482,54.6371559 L47.5404482,15.7581081 C47.5404482,15.6748464 47.6072062,15.6132328 47.6881504,15.6032414 C53.4902607,15.6815074 58.1708355,20.3066944 58.1708355,26.0059574 L58.1708355,31.0524486 C58.187525,31.1257189 58.2451038,31.1840021 58.3235446,31.1840021 L58.4003163,31.1665171 L58.3978129,31.1723455 C64.0130006,26.341502 71.3697393,23.4040294 79.4307757,23.4040294 C97.0432221,23.4040294 111.321103,37.3878309 111.321103,54.6371559 L111.321103,54.6371559 Z" id="Fill-1" fill="#E05A29"></path>
            </g>
        </g>
    </g>
</svg>
